<?xml version="1.0" encoding="UTF-8"?>
<!DOCTYPE svg PUBLIC "-//W3C//DTD SVG 1.1//EN" "http://www.w3.org/Graphics/SVG/1.1/DTD/svg11.dtd">
<svg xmlns="http://www.w3.org/2000/svg" version="1.1" width="268px" height="268px" style="shape-rendering:geometricPrecision; text-rendering:geometricPrecision; image-rendering:optimizeQuality; fill-rule:evenodd; clip-rule:evenodd" xmlns:xlink="http://www.w3.org/1999/xlink">
<g><path style="opacity:1" fill="#505150" d="M 130.5,12.5 C 132.527,12.3379 134.527,12.5045 136.5,13C 152.357,25.6909 168.357,38.1909 184.5,50.5C 185.491,46.5546 185.824,42.5546 185.5,38.5C 196.167,38.5 206.833,38.5 217.5,38.5C 217.333,51.1711 217.5,63.8377 218,76.5C 231.356,87.3571 244.856,98.0238 258.5,108.5C 260.823,113.631 259.323,116.965 254,118.5C 250.673,117.002 247.673,115.002 245,112.5C 244.99,159.25 244.324,205.917 243,252.5C 242.25,253.126 241.416,253.626 240.5,254C 169.167,254.667 97.8333,254.667 26.5,254C 24.6667,253.5 23.5,252.333 23,250.5C 22.6667,204.5 22.3333,158.5 22,112.5C 19.3273,115.002 16.3273,117.002 13,118.5C 7.97699,117.392 6.31032,114.392 8,109.5C 48.9546,77.2785 89.788,44.9452 130.5,12.5 Z M 132.5,26.5 C 135.516,27.3431 138.183,28.8431 140.5,31C 170.909,54.954 201.409,78.7874 232,102.5C 232.5,149.165 232.667,195.832 232.5,242.5C 166.5,242.5 100.5,242.5 34.5,242.5C 34.3333,195.832 34.5,149.165 35,102.5C 67.6861,77.303 100.186,51.9697 132.5,26.5 Z M 196.5,49.5 C 199.833,49.5 203.167,49.5 206.5,49.5C 206.666,55.5092 206.499,61.5092 206,67.5C 203,65.1667 200,62.8333 197,60.5C 196.501,56.8484 196.335,53.1817 196.5,49.5 Z"/></g>
<g><path style="opacity:1" fill="#505150" d="M 100.5,115.5 C 105.931,115.765 108.931,118.598 109.5,124C 107.614,131.108 103.281,133.108 96.5,130C 91.8539,123.47 93.1873,118.637 100.5,115.5 Z"/></g>
<g><path style="opacity:1" fill="#505150" d="M 163.5,115.5 C 170.824,115.654 173.991,119.321 173,126.5C 170.774,130.861 167.274,132.361 162.5,131C 158.443,129.053 156.943,125.886 158,121.5C 159.021,118.65 160.854,116.65 163.5,115.5 Z"/></g>
<g><path style="opacity:1" fill="#505150" d="M 86.5,179.5 C 105.188,205.76 129.521,212.593 159.5,200C 167.715,194.786 174.215,187.952 179,179.5C 182.372,180.769 185.539,182.436 188.5,184.5C 173.753,209.609 151.753,220.109 122.5,216C 102.937,212.26 88.2701,201.76 78.5,184.5C 81.2308,182.808 83.8975,181.142 86.5,179.5 Z"/></g>
</svg>
