<?xml version="1.0" encoding="UTF-8"?>
<!DOCTYPE svg PUBLIC "-//W3C//DTD SVG 1.1//EN" "http://www.w3.org/Graphics/SVG/1.1/DTD/svg11.dtd">
<svg xmlns="http://www.w3.org/2000/svg" version="1.1" width="227px" height="131px" style="shape-rendering:geometricPrecision; text-rendering:geometricPrecision; image-rendering:optimizeQuality; fill-rule:evenodd; clip-rule:evenodd" xmlns:xlink="http://www.w3.org/1999/xlink">
<g><path style="opacity:1" fill="#f9faf9" d="M 37.5,12.5 C 84.1679,12.3333 130.835,12.5 177.5,13C 182.864,15.0275 187.031,18.5275 190,23.5C 191.384,30.4112 191.884,37.4112 191.5,44.5C 195.437,44.2065 199.27,44.5399 203,45.5C 203.667,58.1667 203.667,70.8333 203,83.5C 199.27,84.4601 195.437,84.7935 191.5,84.5C 191.884,91.5888 191.384,98.5888 190,105.5C 187.031,110.473 182.864,113.973 177.5,116C 129.775,116.985 82.108,116.652 34.5,115C 29.5275,112.031 26.0275,107.864 24,102.5C 23.3333,77.1667 23.3333,51.8333 24,26.5C 26.6873,19.981 31.1873,15.3143 37.5,12.5 Z M 42.5,20.5 C 85.8346,20.3333 129.168,20.5 172.5,21C 176.965,21.3128 180.132,23.4794 182,27.5C 183.197,35.4385 183.864,43.4385 184,51.5C 187.73,52.4601 191.563,52.7935 195.5,52.5C 195.5,60.5 195.5,68.5 195.5,76.5C 191.563,76.2065 187.73,76.5399 184,77.5C 183.864,85.5615 183.197,93.5615 182,101.5C 179.784,105.027 176.617,107.194 172.5,108C 127.787,108.979 83.1208,108.646 38.5,107C 34.973,104.784 32.8064,101.617 32,97.5C 31.3333,75.5 31.3333,53.5 32,31.5C 33.0135,25.3221 36.5135,21.6555 42.5,20.5 Z"/></g>
<g><path style="opacity:1" fill="#f9faf9" d="M 40.5,28.5 C 43.0444,28.1043 45.2111,28.771 47,30.5C 47.6667,53.1667 47.6667,75.8333 47,98.5C 44.9251,100.648 42.5918,100.982 40,99.5C 39.1777,75.7608 39.3444,52.0942 40.5,28.5 Z"/></g>
<g><path style="opacity:1" fill="#f9faf9" d="M 54.5,28.5 C 57.0444,28.1043 59.2111,28.771 61,30.5C 61.6667,53.1667 61.6667,75.8333 61,98.5C 58.9251,100.648 56.5918,100.982 54,99.5C 53.1777,75.7608 53.3444,52.0942 54.5,28.5 Z"/></g>
<g><path style="opacity:1" fill="#f9faf9" d="M 68.5,28.5 C 71.0444,28.1043 73.2111,28.771 75,30.5C 75.6667,53.1667 75.6667,75.8333 75,98.5C 72.9251,100.648 70.5918,100.982 68,99.5C 67.1777,75.7608 67.3444,52.0942 68.5,28.5 Z"/></g>
<g><path style="opacity:1" fill="#f9faf9" d="M 82.5,28.5 C 85.0444,28.1043 87.2111,28.771 89,30.5C 89.6667,53.1667 89.6667,75.8333 89,98.5C 86.9251,100.648 84.5918,100.982 82,99.5C 81.1777,75.7608 81.3444,52.0942 82.5,28.5 Z"/></g>
<g><path style="opacity:1" fill="#f9faf9" d="M 96.5,28.5 C 99.0444,28.1043 101.211,28.771 103,30.5C 103.667,53.1667 103.667,75.8333 103,98.5C 100.925,100.648 98.5918,100.982 96,99.5C 95.1777,75.7608 95.3444,52.0942 96.5,28.5 Z"/></g>
<g><path style="opacity:1" fill="#f9faf9" d="M 110.5,28.5 C 113.044,28.1043 115.211,28.771 117,30.5C 117.667,53.1667 117.667,75.8333 117,98.5C 114.925,100.648 112.592,100.982 110,99.5C 109.178,75.7608 109.344,52.0942 110.5,28.5 Z"/></g>
<g><path style="opacity:1" fill="#f9faf9" d="M 124.5,28.5 C 127.044,28.1043 129.211,28.771 131,30.5C 131.667,53.1667 131.667,75.8333 131,98.5C 128.925,100.648 126.592,100.982 124,99.5C 123.178,75.7608 123.344,52.0942 124.5,28.5 Z"/></g>
<g><path style="opacity:1" fill="#f9faf9" d="M 138.5,28.5 C 141.044,28.1043 143.211,28.771 145,30.5C 145.667,53.1667 145.667,75.8333 145,98.5C 142.925,100.648 140.592,100.982 138,99.5C 137.178,75.7608 137.344,52.0942 138.5,28.5 Z"/></g>
<g><path style="opacity:1" fill="#f9faf9" d="M 152.5,28.5 C 155.044,28.1043 157.211,28.771 159,30.5C 159.667,53.1667 159.667,75.8333 159,98.5C 156.925,100.648 154.592,100.982 152,99.5C 151.178,75.7608 151.344,52.0942 152.5,28.5 Z"/></g>
<g><path style="opacity:1" fill="#f9faf9" d="M 166.5,28.5 C 169.044,28.1043 171.211,28.771 173,30.5C 173.667,53.1667 173.667,75.8333 173,98.5C 170.925,100.648 168.592,100.982 166,99.5C 165.178,75.7608 165.344,52.0942 166.5,28.5 Z"/></g>
</svg>
