<?xml version="1.0" encoding="UTF-8"?>
<!DOCTYPE svg PUBLIC "-//W3C//DTD SVG 1.1//EN" "http://www.w3.org/Graphics/SVG/1.1/DTD/svg11.dtd">
<svg xmlns="http://www.w3.org/2000/svg" version="1.1" width="267px" height="268px" style="shape-rendering:geometricPrecision; text-rendering:geometricPrecision; image-rendering:optimizeQuality; fill-rule:evenodd; clip-rule:evenodd" xmlns:xlink="http://www.w3.org/1999/xlink">
<g><path style="opacity:1" fill="#565756" d="M 73.5,43.5 C 75.1789,43.8923 76.8455,44.3923 78.5,45C 83.4329,50.6973 86.9329,57.1973 89,64.5C 89.6667,69.5 89.6667,74.5 89,79.5C 86.4648,85.2731 84.6315,91.2731 83.5,97.5C 84.7888,105.077 87.9554,111.743 93,117.5C 93.1908,125.304 89.8575,127.304 83,123.5C 74.8404,114.354 71.5071,103.687 73,91.5C 75.042,85.0428 76.8754,78.5428 78.5,72C 78.1647,64.6507 75.3314,58.484 70,53.5C 68.5812,49.0823 69.7478,45.7489 73.5,43.5 Z"/></g>
<g><path style="opacity:1" fill="#565756" d="M 115.5,43.5 C 118.099,43.5494 120.266,44.5494 122,46.5C 130.491,56.3165 133.491,67.6498 131,80.5C 128.579,86.0007 126.746,91.6674 125.5,97.5C 126.269,100.51 127.103,103.51 128,106.5C 131.161,110.658 133.661,115.158 135.5,120C 133.96,125.52 130.626,126.853 125.5,124C 117.604,114.979 114.104,104.479 115,92.5C 117.429,85.6466 119.262,78.6466 120.5,71.5C 120.458,68.7414 119.958,66.0747 119,63.5C 116.667,59.8333 114.333,56.1667 112,52.5C 110.665,48.3919 111.832,45.3919 115.5,43.5 Z"/></g>
<g><path style="opacity:1" fill="#565756" d="M 157.5,43.5 C 160.617,43.6423 163.117,44.9756 165,47.5C 170.808,54.6198 173.974,62.7865 174.5,72C 172.911,80.6507 170.911,89.1507 168.5,97.5C 168.667,99.5 168.833,101.5 169,103.5C 172.128,108.759 174.961,114.093 177.5,119.5C 176.746,125.046 173.746,126.713 168.5,124.5C 161.366,116.729 157.366,107.563 156.5,97C 158.308,88.5863 160.308,80.2529 162.5,72C 161.992,64.4841 159.159,57.9841 154,52.5C 152.665,48.3919 153.832,45.3919 157.5,43.5 Z"/></g>
<g><path style="opacity:1" fill="#565756" d="M 60.5,154.5 C 107.168,154.333 153.835,154.5 200.5,155C 204.497,157.048 205.497,160.215 203.5,164.5C 202.624,165.251 201.624,165.751 200.5,166C 153.5,166.333 106.5,166.667 59.5,167C 52.3764,173.371 53.043,178.704 61.5,183C 114.5,183.333 167.5,183.667 220.5,184C 232.959,188.682 237.459,197.516 234,210.5C 230.782,217.723 225.282,221.89 217.5,223C 156.833,223.667 96.1667,223.667 35.5,223C 30.6091,221.291 29.4424,218.125 32,213.5C 32.7504,212.874 33.5838,212.374 34.5,212C 95.8333,211.667 157.167,211.333 218.5,211C 223.069,208.459 224.569,204.625 223,199.5C 221.457,197.622 219.624,196.122 217.5,195C 164.167,194.667 110.833,194.333 57.5,194C 45.8262,189.493 41.3262,180.993 44,168.5C 46.9805,160.674 52.4805,156.007 60.5,154.5 Z"/></g>
</svg>
