<?xml version="1.0" encoding="UTF-8"?>
<!DOCTYPE svg PUBLIC "-//W3C//DTD SVG 1.1//EN" "http://www.w3.org/Graphics/SVG/1.1/DTD/svg11.dtd">
<svg xmlns="http://www.w3.org/2000/svg" version="1.1" width="268px" height="267px" style="shape-rendering:geometricPrecision; text-rendering:geometricPrecision; image-rendering:optimizeQuality; fill-rule:evenodd; clip-rule:evenodd" xmlns:xlink="http://www.w3.org/1999/xlink">
<g><path style="opacity:1" fill="#6fa800" d="M 24.5,24.5 C 74.7163,30.1841 122.716,43.6841 168.5,65C 188.715,75.3625 206.215,89.1958 221,106.5C 237.844,132.306 239.844,159.306 227,187.5C 223.882,194.239 220.382,200.739 216.5,207C 225,215.5 233.5,224 242,232.5C 243.326,240.17 240.159,243.003 232.5,241C 224.319,232.652 215.986,224.486 207.5,216.5C 190.431,226.912 171.931,232.579 152,233.5C 125.492,231.913 104.159,220.579 88,199.5C 65.5018,168.729 49.5018,134.729 40,97.5C 33.6147,73.4058 28.448,49.0724 24.5,24.5 Z M 104.5,82.5 C 105.965,83.4057 106.965,84.739 107.5,86.5C 105.652,93.3408 106.819,99.6742 111,105.5C 120.715,114.713 129.881,124.38 138.5,134.5C 139.665,123.862 140.498,113.195 141,102.5C 142.826,98.9626 145.16,98.6293 148,101.5C 148.093,115.213 148.76,128.88 150,142.5C 159.434,153.937 169.601,164.77 180.5,175C 181.448,175.483 182.448,175.649 183.5,175.5C 183.333,162.496 183.5,149.496 184,136.5C 185.506,133.526 187.172,133.193 189,135.5C 190.304,151.742 190.971,168.075 191,184.5C 198.135,192.636 205.635,200.47 213.5,208C 212,209.5 210.5,211 209,212.5C 201.47,204.635 193.636,197.135 185.5,190C 168.833,189.667 152.167,189.333 135.5,189C 132.833,187 132.833,185 135.5,183C 149.179,182.833 162.846,182.333 176.5,181.5C 166.649,169.482 155.649,158.649 143.5,149C 132.176,147.5 120.842,147.333 109.5,148.5C 106.741,148.458 104.075,147.958 101.5,147C 99.6823,143.613 100.682,141.613 104.5,141C 114.828,140.5 125.161,140.334 135.5,140.5C 135.719,139.325 135.386,138.325 134.5,137.5C 124.017,128.851 114.35,119.351 105.5,109C 100.594,106.217 95.4273,105.384 90,106.5C 87.7395,106.561 85.7395,105.894 84,104.5C 83.2888,102.633 83.7888,101.133 85.5,100C 90.4889,99.5007 95.4889,99.3341 100.5,99.5C 100.334,95.1539 100.501,90.8206 101,86.5C 101.69,84.6498 102.856,83.3164 104.5,82.5 Z"/></g>
</svg>
