<?xml version="1.0" encoding="UTF-8"?>
<!DOCTYPE svg PUBLIC "-//W3C//DTD SVG 1.1//EN" "http://www.w3.org/Graphics/SVG/1.1/DTD/svg11.dtd">
<svg xmlns="http://www.w3.org/2000/svg" version="1.1" width="268px" height="268px" style="shape-rendering:geometricPrecision; text-rendering:geometricPrecision; image-rendering:optimizeQuality; fill-rule:evenodd; clip-rule:evenodd" xmlns:xlink="http://www.w3.org/1999/xlink">
<g><path style="opacity:1" fill="#565756" d="M 99.5,26.5 C 103.5,26.5 107.5,26.5 111.5,26.5C 111.5,41.1667 111.5,55.8333 111.5,70.5C 108.393,70.6488 105.393,70.1488 102.5,69C 101.107,67.8289 100.273,66.3289 100,64.5C 99.5001,51.8377 99.3334,39.1711 99.5,26.5 Z"/></g>
<g><path style="opacity:1" fill="#565756" d="M 156.5,26.5 C 160.5,26.5 164.5,26.5 168.5,26.5C 168.5,41.1667 168.5,55.8333 168.5,70.5C 164.5,70.5 160.5,70.5 156.5,70.5C 156.5,55.8333 156.5,41.1667 156.5,26.5 Z"/></g>
<g><path style="opacity:1" fill="#565756" d="M 55.5,41.5 C 59.1309,41.1604 62.4642,41.9937 65.5,44C 115.333,93.8333 165.167,143.667 215,193.5C 216.696,195.56 217.863,197.893 218.5,200.5C 215.349,207.699 210.016,209.532 202.5,206C 152.333,155.833 102.167,105.667 52,55.5C 49.2672,49.7222 50.4339,45.0555 55.5,41.5 Z"/></g>
<g><path style="opacity:1" fill="#565756" d="M 107.5,75.5 C 134.328,74.5021 161.328,74.1688 188.5,74.5C 188.666,84.1724 188.5,93.8391 188,103.5C 185.619,104.435 183.119,104.768 180.5,104.5C 179.884,118.175 179.05,131.842 178,145.5C 154.632,121.965 131.132,98.6317 107.5,75.5 Z"/></g>
<g><path style="opacity:1" fill="#565756" d="M 79.5,94.5 C 105.763,119.095 131.429,144.428 156.5,170.5C 131.704,180.844 111.204,175.511 95,154.5C 92.2107,149.466 90.2107,144.132 89,138.5C 88.5001,127.172 88.3335,115.838 88.5,104.5C 85.5,104.5 82.5,104.5 79.5,104.5C 79.5,101.167 79.5,97.8333 79.5,94.5 Z"/></g>
<g><path style="opacity:1" fill="#565756" d="M 126.5,178.5 C 131.833,178.5 137.167,178.5 142.5,178.5C 142.5,199.167 142.5,219.833 142.5,240.5C 137.167,240.5 131.833,240.5 126.5,240.5C 126.5,219.833 126.5,199.167 126.5,178.5 Z"/></g>
</svg>
