<?xml version="1.0" encoding="UTF-8"?>
<!DOCTYPE svg PUBLIC "-//W3C//DTD SVG 1.1//EN" "http://www.w3.org/Graphics/SVG/1.1/DTD/svg11.dtd">
<svg xmlns="http://www.w3.org/2000/svg" version="1.1" width="268px" height="268px" style="shape-rendering:geometricPrecision; text-rendering:geometricPrecision; image-rendering:optimizeQuality; fill-rule:evenodd; clip-rule:evenodd" xmlns:xlink="http://www.w3.org/1999/xlink">
<g><path style="opacity:1" fill="#505150" d="M 130.5,14.5 C 133.157,14.162 135.49,14.8287 137.5,16.5C 140.703,24.4148 145.036,31.5815 150.5,38C 153.558,38.4577 156.558,38.1244 159.5,37C 164.075,34.877 168.742,33.0436 173.5,31.5C 178.151,32.1926 179.651,34.8593 178,39.5C 174.116,46.3654 172.45,53.6988 173,61.5C 179.192,66.1797 186.025,69.6797 193.5,72C 196.059,75.0747 196.059,78.0747 193.5,81C 190.583,82.5275 187.583,83.8608 184.5,85C 194.833,85.3333 205.167,85.6667 215.5,86C 219.066,86.6998 221.9,88.5332 224,91.5C 233.532,125.098 242.865,158.765 252,192.5C 252.87,198.917 252.536,205.251 251,211.5C 249.01,215.49 245.843,217.99 241.5,219C 213.502,219.5 185.502,219.667 157.5,219.5C 157.5,220.833 157.5,222.167 157.5,223.5C 176.908,221.415 184.741,230.082 181,249.5C 180.167,250.333 179.333,251.167 178.5,252C 148.5,252.667 118.5,252.667 88.5,252C 87.5838,251.626 86.7504,251.126 86,250.5C 81.4008,230.279 89.2341,221.279 109.5,223.5C 109.5,222.167 109.5,220.833 109.5,219.5C 81.1647,219.667 52.8314,219.5 24.5,219C 19.7938,217.895 16.6271,215.062 15,210.5C 14.3333,204.167 14.3333,197.833 15,191.5C 23.8443,158.456 32.8443,125.456 42,92.5C 44.2643,89.5665 47.0976,87.3999 50.5,86C 61.1667,85.6667 71.8333,85.3333 82.5,85C 79.0482,83.7743 75.7148,82.2743 72.5,80.5C 71.0171,77.3884 71.3504,74.5551 73.5,72C 80.693,69.1537 87.5264,65.6537 94,61.5C 93.5956,52.7737 91.429,44.4403 87.5,36.5C 88.8578,31.9222 91.8578,30.4222 96.5,32C 103.157,35.4443 110.157,37.4443 117.5,38C 118.667,36.8333 119.833,35.6667 121,34.5C 124.084,27.7259 127.25,21.0593 130.5,14.5 Z M 133.5,33.5 C 135.804,36.6581 137.97,39.9915 140,43.5C 146.797,50.3919 154.464,51.3919 163,46.5C 161.681,52.3595 161.347,58.3595 162,64.5C 162.792,66.5873 163.959,68.4207 165.5,70C 169.167,72.3333 172.833,74.6667 176.5,77C 171.667,79.5821 167,82.4155 162.5,85.5C 164.478,70.9563 159.478,59.4563 147.5,51C 133.839,44.9588 121.672,47.1255 111,57.5C 104.885,65.6253 103.052,74.6253 105.5,84.5C 104.635,85.5827 103.635,85.7494 102.5,85C 98.6756,81.9209 94.6756,79.0876 90.5,76.5C 95.4301,74.1202 99.9301,71.1202 104,67.5C 106.073,60.4877 105.573,53.6543 102.5,47C 107.108,47.7133 111.774,48.5467 116.5,49.5C 125.355,47.6473 131.022,42.314 133.5,33.5 Z M 128.5,58.5 C 146.48,58.308 153.646,66.9747 150,84.5C 138.915,85.4874 127.748,85.8207 116.5,85.5C 112.62,72.9312 116.62,63.9312 128.5,58.5 Z M 52.5,96.5 C 106.501,96.3333 160.501,96.5 214.5,97C 223.56,129.072 232.394,161.239 241,193.5C 241.667,198.167 241.667,202.833 241,207.5C 169.57,208.665 98.0702,208.831 26.5,208C 26,207.5 25.5,207 25,206.5C 24.3333,202.833 24.3333,199.167 25,195.5C 33.8795,162.369 43.0461,129.369 52.5,96.5 Z M 66.5,115.5 C 74.8333,115.5 83.1667,115.5 91.5,115.5C 90.7462,124.53 89.7462,133.53 88.5,142.5C 79.1667,142.5 69.8333,142.5 60.5,142.5C 62.033,133.371 64.033,124.371 66.5,115.5 Z M 102.5,115.5 C 111.167,115.5 119.833,115.5 128.5,115.5C 128.5,124.5 128.5,133.5 128.5,142.5C 118.833,142.5 109.167,142.5 99.5,142.5C 100.418,133.488 101.418,124.488 102.5,115.5 Z M 138.5,115.5 C 147.167,115.5 155.833,115.5 164.5,115.5C 165.135,124.548 166.135,133.548 167.5,142.5C 157.833,142.5 148.167,142.5 138.5,142.5C 138.5,133.5 138.5,124.5 138.5,115.5 Z M 174.5,116.5 C 182.984,115.507 191.651,115.174 200.5,115.5C 202.5,124.5 204.5,133.5 206.5,142.5C 197.161,142.666 187.827,142.5 178.5,142C 177.197,133.398 175.863,124.898 174.5,116.5 Z M 57.5,152.5 C 67.5,152.5 77.5,152.5 87.5,152.5C 86.0846,163.49 84.7512,174.49 83.5,185.5C 72.1618,185.667 60.8284,185.5 49.5,185C 52.4815,174.263 55.1482,163.43 57.5,152.5 Z M 98.5,152.5 C 108.5,152.5 118.5,152.5 128.5,152.5C 128.5,163.5 128.5,174.5 128.5,185.5C 117.167,185.5 105.833,185.5 94.5,185.5C 95.4249,174.435 96.7582,163.435 98.5,152.5 Z M 138.5,152.5 C 148.5,152.5 158.5,152.5 168.5,152.5C 169.751,163.51 171.085,174.51 172.5,185.5C 161.167,185.5 149.833,185.5 138.5,185.5C 138.5,174.5 138.5,163.5 138.5,152.5 Z M 179.5,152.5 C 189.5,152.5 199.5,152.5 209.5,152.5C 211.675,163.533 214.008,174.533 216.5,185.5C 205.48,185.832 194.48,185.499 183.5,184.5C 181.676,173.907 180.343,163.241 179.5,152.5 Z M 119.5,219.5 C 128.833,219.5 138.167,219.5 147.5,219.5C 147.334,223.514 147.501,227.514 148,231.5C 148.5,232 149,232.5 149.5,233C 155.833,233.333 162.167,233.667 168.5,234C 170.314,236.481 170.98,239.315 170.5,242.5C 145.5,242.5 120.5,242.5 95.5,242.5C 95.0695,239.138 96.0695,236.305 98.5,234C 104.833,233.667 111.167,233.333 117.5,233C 118,232.5 118.5,232 119,231.5C 119.499,227.514 119.666,223.514 119.5,219.5 Z"/></g>
<g><path style="opacity:1" fill="#505150" d="M 59.5,104.5 C 109.251,104.009 158.918,104.509 208.5,106C 214.894,131.41 221.06,156.91 227,182.5C 228.106,186.122 228.439,189.789 228,193.5C 226.649,195.01 224.982,196.01 223,196.5C 163,195.167 103,195.167 43,196.5C 39.8333,196 38,194.167 37.5,191C 44.2357,163.557 50.7357,136.057 57,108.5C 57.6622,107.016 58.4955,105.683 59.5,104.5 Z M 66.5,115.5 C 64.033,124.371 62.033,133.371 60.5,142.5C 69.8333,142.5 79.1667,142.5 88.5,142.5C 89.7462,133.53 90.7462,124.53 91.5,115.5C 83.1667,115.5 74.8333,115.5 66.5,115.5 Z M 102.5,115.5 C 101.418,124.488 100.418,133.488 99.5,142.5C 109.167,142.5 118.833,142.5 128.5,142.5C 128.5,133.5 128.5,124.5 128.5,115.5C 119.833,115.5 111.167,115.5 102.5,115.5 Z M 138.5,115.5 C 138.5,124.5 138.5,133.5 138.5,142.5C 148.167,142.5 157.833,142.5 167.5,142.5C 166.135,133.548 165.135,124.548 164.5,115.5C 155.833,115.5 147.167,115.5 138.5,115.5 Z M 174.5,116.5 C 175.863,124.898 177.197,133.398 178.5,142C 187.827,142.5 197.161,142.666 206.5,142.5C 204.5,133.5 202.5,124.5 200.5,115.5C 191.651,115.174 182.984,115.507 174.5,116.5 Z M 57.5,152.5 C 55.1482,163.43 52.4815,174.263 49.5,185C 60.8284,185.5 72.1618,185.667 83.5,185.5C 84.7512,174.49 86.0846,163.49 87.5,152.5C 77.5,152.5 67.5,152.5 57.5,152.5 Z M 98.5,152.5 C 96.7582,163.435 95.4249,174.435 94.5,185.5C 105.833,185.5 117.167,185.5 128.5,185.5C 128.5,174.5 128.5,163.5 128.5,152.5C 118.5,152.5 108.5,152.5 98.5,152.5 Z M 138.5,152.5 C 138.5,163.5 138.5,174.5 138.5,185.5C 149.833,185.5 161.167,185.5 172.5,185.5C 171.085,174.51 169.751,163.51 168.5,152.5C 158.5,152.5 148.5,152.5 138.5,152.5 Z M 179.5,152.5 C 180.343,163.241 181.676,173.907 183.5,184.5C 194.48,185.499 205.48,185.832 216.5,185.5C 214.008,174.533 211.675,163.533 209.5,152.5C 199.5,152.5 189.5,152.5 179.5,152.5 Z"/></g>
</svg>
