<?xml version="1.0" encoding="UTF-8"?>
<!DOCTYPE svg PUBLIC "-//W3C//DTD SVG 1.1//EN" "http://www.w3.org/Graphics/SVG/1.1/DTD/svg11.dtd">
<svg xmlns="http://www.w3.org/2000/svg" version="1.1" width="267px" height="268px" style="shape-rendering:geometricPrecision; text-rendering:geometricPrecision; image-rendering:optimizeQuality; fill-rule:evenodd; clip-rule:evenodd" xmlns:xlink="http://www.w3.org/1999/xlink">
<g><path style="opacity:1" fill="#505150" d="M 131.5,12.5 C 135.536,13.0201 138.703,15.0201 141,18.5C 149.381,28.7591 157.881,38.9258 166.5,49C 189.5,49.3333 212.5,49.6667 235.5,50C 239.657,58.3623 236.99,61.8623 227.5,60.5C 227.666,64.8461 227.499,69.1794 227,73.5C 223.952,77.0095 220.619,77.3428 217,74.5C 215.947,69.909 215.114,65.2424 214.5,60.5C 199.833,70.1667 185.167,79.8333 170.5,89.5C 169.502,98.8096 169.168,108.143 169.5,117.5C 191.503,117.333 213.503,117.5 235.5,118C 239.657,126.362 236.99,129.862 227.5,128.5C 227.666,132.846 227.499,137.179 227,141.5C 222.837,145.747 219.171,145.414 216,140.5C 215.501,136.514 215.334,132.514 215.5,128.5C 200.011,137.504 184.844,147.171 170,157.5C 169.333,167.833 169.333,178.167 170,188.5C 182.947,207.113 196.28,225.447 210,243.5C 212.954,248.863 211.621,252.53 206,254.5C 181.591,246.03 157.257,237.364 133,228.5C 108.667,237.167 84.3333,245.833 60,254.5C 54.3387,253.188 52.672,249.855 55,244.5C 68.578,226.344 81.9113,208.01 95,189.5C 95.6667,178.833 95.6667,168.167 95,157.5C 80.4397,146.752 65.2731,137.085 49.5,128.5C 49.6658,133.179 49.4992,137.845 49,142.5C 45.2596,145.413 41.9263,145.08 39,141.5C 38.501,137.179 38.3343,132.846 38.5,128.5C 34.3966,129.231 30.8966,128.231 28,125.5C 27.2446,122.503 28.0779,120.003 30.5,118C 52.1641,117.5 73.8308,117.333 95.5,117.5C 95.6665,108.161 95.4998,98.8274 95,89.5C 80.4397,78.7517 65.2731,69.0851 49.5,60.5C 49.6658,65.1785 49.4992,69.8452 49,74.5C 45.3369,77.3333 42.0035,77 39,73.5C 38.501,69.1794 38.3343,64.8461 38.5,60.5C 34.3966,61.2309 30.8966,60.2309 28,57.5C 27.2446,54.5027 28.0779,52.0027 30.5,50C 53.1667,49.6667 75.8333,49.3333 98.5,49C 109.394,36.6124 120.394,24.4458 131.5,12.5 Z M 132.5,27.5 C 138.596,34.7699 144.93,41.9365 151.5,49C 139.167,49.6667 126.833,49.6667 114.5,49C 120.627,41.8949 126.627,34.7282 132.5,27.5 Z M 73.5,61.5 C 80.6476,60.5084 87.9809,60.175 95.5,60.5C 95.6659,65.5111 95.4993,70.5111 95,75.5C 88.2026,70.1906 81.036,65.524 73.5,61.5 Z M 114.5,61.5 C 126.326,60.3403 138.326,60.1737 150.5,61C 144.667,67.5 138.833,74 133,80.5C 127.329,73.6627 121.162,67.3293 114.5,61.5 Z M 169.5,60.5 C 176.841,60.3337 184.174,60.5003 191.5,61C 184.42,65.9572 177.253,70.7905 170,75.5C 169.501,70.5111 169.334,65.5111 169.5,60.5 Z M 107.5,70.5 C 113.301,76.4705 118.967,82.6372 124.5,89C 119,95.1667 113.5,101.333 108,107.5C 107.5,95.1712 107.333,82.8378 107.5,70.5 Z M 157.5,70.5 C 158.66,82.6597 158.827,94.9931 158,107.5C 152.532,101.031 146.699,94.8644 140.5,89C 146.741,83.2632 152.408,77.0965 157.5,70.5 Z M 131.5,98.5 C 138.606,103.771 144.939,109.938 150.5,117C 138.833,117.667 127.167,117.667 115.5,117C 121.043,110.961 126.376,104.795 131.5,98.5 Z M 74.5,129.5 C 81.3134,128.509 88.3134,128.175 95.5,128.5C 95.8266,133.214 95.4933,137.88 94.5,142.5C 87.8157,138.141 81.149,133.807 74.5,129.5 Z M 115.5,128.5 C 127.171,128.333 138.838,128.5 150.5,129C 144.667,135.5 138.833,142 133,148.5C 126.935,141.942 121.102,135.275 115.5,128.5 Z M 169.5,128.5 C 176.841,128.334 184.174,128.5 191.5,129C 184.42,133.957 177.253,138.79 170,143.5C 169.501,138.511 169.334,133.511 169.5,128.5 Z M 107.5,138.5 C 113.301,144.471 118.967,150.637 124.5,157C 119,163.167 113.5,169.333 108,175.5C 107.5,163.171 107.333,150.838 107.5,138.5 Z M 157.5,138.5 C 158.66,150.66 158.827,162.993 158,175.5C 152.532,169.031 146.699,162.864 140.5,157C 146.741,151.263 152.408,145.097 157.5,138.5 Z M 132.5,165.5 C 140.485,173.487 148.151,181.82 155.5,190.5C 148.167,198.5 140.5,206.167 132.5,213.5C 124.681,206.181 117.014,198.681 109.5,191C 117.374,182.629 125.04,174.129 132.5,165.5 Z M 101.5,200.5 C 108.757,206.087 115.424,212.421 121.5,219.5C 106.723,225.26 91.8892,230.927 77,236.5C 77.044,234.721 77.7107,233.055 79,231.5C 86.7182,221.288 94.2182,210.955 101.5,200.5 Z M 188.5,235.5 C 173.498,230.443 158.498,225.277 143.5,220C 150.014,213.319 156.681,206.819 163.5,200.5C 172.271,211.925 180.605,223.591 188.5,235.5 Z"/></g>
</svg>
