<?xml version="1.0" encoding="UTF-8"?>
<!DOCTYPE svg PUBLIC "-//W3C//DTD SVG 1.1//EN" "http://www.w3.org/Graphics/SVG/1.1/DTD/svg11.dtd">
<svg xmlns="http://www.w3.org/2000/svg" version="1.1" width="120px" height="102px" style="shape-rendering:geometricPrecision; text-rendering:geometricPrecision; image-rendering:optimizeQuality; fill-rule:evenodd; clip-rule:evenodd" xmlns:xlink="http://www.w3.org/1999/xlink">
<g><path style="opacity:1" fill="#f9faf9" d="M 90.5,-0.5 C 95.1667,-0.5 99.8333,-0.5 104.5,-0.5C 106.69,0.374458 107.69,2.04112 107.5,4.5C 111.5,4.5 115.5,4.5 119.5,4.5C 119.5,6.5 119.5,8.5 119.5,10.5C 115.5,10.5 111.5,10.5 107.5,10.5C 107.5,14.8333 107.5,19.1667 107.5,23.5C 111.5,23.5 115.5,23.5 119.5,23.5C 119.5,25.5 119.5,27.5 119.5,29.5C 115.5,29.5 111.5,29.5 107.5,29.5C 107.863,31.9115 106.863,33.4115 104.5,34C 99.0788,34.8392 93.7455,34.5059 88.5,33C 85.3333,29.8333 82.1667,26.6667 79,23.5C 78.51,22.2068 78.3433,20.8734 78.5,19.5C 61.4967,19.3334 44.4967,19.5001 27.5,20C 14.6667,22.1667 7.16667,29.6667 5,42.5C 4.33333,52.5 4.33333,62.5 5,72.5C 5.68909,73.3567 6.52242,74.0233 7.5,74.5C 7.90149,63.598 13.5682,57.7647 24.5,57C 27.6667,52.5 30.8333,48 34,43.5C 35.4194,42.5399 36.9194,41.7065 38.5,41C 51.5,40.3333 64.5,40.3333 77.5,41C 80.1024,41.8834 82.2691,43.3834 84,45.5C 86.4674,49.6004 89.3007,53.4338 92.5,57C 99.071,58.9761 105.738,60.6428 112.5,62C 115.621,62.9668 117.954,64.8001 119.5,67.5C 119.5,74.1667 119.5,80.8333 119.5,87.5C 118.684,89.1436 117.35,90.3103 115.5,91C 112.833,91.3333 110.167,91.6667 107.5,92C 105.56,96.7773 102.226,99.9439 97.5,101.5C 95.5,101.5 93.5,101.5 91.5,101.5C 86.9677,99.9744 83.6343,96.9744 81.5,92.5C 69.1847,91.501 56.8513,91.1676 44.5,91.5C 42.9246,96.0774 39.9246,99.4107 35.5,101.5C 33.1667,101.5 30.8333,101.5 28.5,101.5C 23.7753,99.942 20.442,96.7753 18.5,92C 10.6208,91.6105 7.28745,87.4438 8.5,79.5C 4.54746,80.0193 1.54746,78.6859 -0.5,75.5C -0.5,62.8333 -0.5,50.1667 -0.5,37.5C 3.31707,26.184 10.9837,18.684 22.5,15C 41.1637,14.5001 59.8304,14.3334 78.5,14.5C 78.3433,13.1266 78.51,11.7932 79,10.5C 82.7288,6.60185 86.5621,2.93519 90.5,-0.5 Z M 91.5,5.5 C 95.1667,5.5 98.8333,5.5 102.5,5.5C 102.5,13.1667 102.5,20.8333 102.5,28.5C 98.8183,28.6653 95.1516,28.4986 91.5,28C 89,25.5 86.5,23 84,20.5C 83.3333,18.1667 83.3333,15.8333 84,13.5C 86.705,10.9638 89.205,8.29709 91.5,5.5 Z M 39.5,46.5 C 44.5,46.5 49.5,46.5 54.5,46.5C 54.5,50.1667 54.5,53.8333 54.5,57.5C 46.8261,57.6664 39.1594,57.4997 31.5,57C 34.0542,53.3802 36.7209,49.8802 39.5,46.5 Z M 59.5,46.5 C 65.1764,46.3339 70.8431,46.5006 76.5,47C 79.6711,49.677 82.3378,52.8437 84.5,56.5C 76.1932,57.4979 67.8599,57.8312 59.5,57.5C 59.5,53.8333 59.5,50.1667 59.5,46.5 Z M 26.5,62.5 C 47.8359,62.3334 69.1693,62.5 90.5,63C 96.8055,64.4611 103.139,65.7944 109.5,67C 111.667,67.8333 113.167,69.3333 114,71.5C 114.667,75.8333 114.667,80.1667 114,84.5C 112.211,86.229 110.044,86.8957 107.5,86.5C 104.273,74.3938 96.9396,71.2271 85.5,77C 82.9376,79.2894 81.2709,82.1228 80.5,85.5C 68.8523,86.4989 57.1857,86.8322 45.5,86.5C 44.2356,78.5711 39.569,74.5711 31.5,74.5C 23.9739,75.0257 19.6405,79.0257 18.5,86.5C 17.1779,86.67 16.0113,86.3366 15,85.5C 14.3333,79.5 14.3333,73.5 15,67.5C 15.8333,66.6667 16.6667,65.8333 17.5,65C 20.678,64.3405 23.678,63.5072 26.5,62.5 Z M 30.5,79.5 C 37.9775,80.1038 40.8108,84.1038 39,91.5C 31.8846,97.7856 26.7179,96.4523 23.5,87.5C 24.485,83.5228 26.8183,80.8561 30.5,79.5 Z M 92.5,79.5 C 98.9842,79.8148 102.151,83.1481 102,89.5C 100.268,94.6165 96.7683,96.4499 91.5,95C 87.1392,92.7742 85.6392,89.2742 87,84.5C 88.3516,82.251 90.1849,80.5844 92.5,79.5 Z"/></g>
</svg>
