<?xml version="1.0" encoding="UTF-8"?>
<!DOCTYPE svg PUBLIC "-//W3C//DTD SVG 1.1//EN" "http://www.w3.org/Graphics/SVG/1.1/DTD/svg11.dtd">
<svg xmlns="http://www.w3.org/2000/svg" version="1.1" width="268px" height="268px" style="shape-rendering:geometricPrecision; text-rendering:geometricPrecision; image-rendering:optimizeQuality; fill-rule:evenodd; clip-rule:evenodd" xmlns:xlink="http://www.w3.org/1999/xlink">
<g><path style="opacity:1" fill="#565756" d="M 95.5,18.5 C 126.168,18.3334 156.835,18.5 187.5,19C 196.575,19.0854 205.575,19.7521 214.5,21C 219.551,23.7199 222.718,27.8865 224,33.5C 224.5,48.4963 224.667,63.4963 224.5,78.5C 220.833,78.5 217.167,78.5 213.5,78.5C 213.667,64.496 213.5,50.496 213,36.5C 212.315,33.9427 210.815,32.1094 208.5,31C 171.833,30.2222 135.167,29.8889 98.5,30C 94.1627,31.1724 92.1627,34.0057 92.5,38.5C 101.173,38.3336 109.84,38.5002 118.5,39C 139.212,42.3761 152.379,54.2095 158,74.5C 158.667,120.5 158.667,166.5 158,212.5C 154.046,230.455 143.212,241.955 125.5,247C 101.208,248.617 76.875,248.95 52.5,248C 35.8133,244.983 24.1466,235.65 17.5,220C 14.5184,219.502 11.5184,219.335 8.5,219.5C 8.5,204.833 8.5,190.167 8.5,175.5C 10.5,175.5 12.5,175.5 14.5,175.5C 14.3334,143.498 14.5,111.498 15,79.5C 18.3799,56.4535 31.5465,42.9535 54.5,39C 63.4938,38.5002 72.4938,38.3336 81.5,38.5C 81.115,28.2289 85.7817,21.5623 95.5,18.5 Z M 52.5,50.5 C 75.5024,50.3334 98.5024,50.5 121.5,51C 135.109,54.9419 143.609,63.7752 147,77.5C 147.667,121.5 147.667,165.5 147,209.5C 143.705,222.796 135.538,231.63 122.5,236C 110.712,237.112 98.8791,237.612 87,237.5C 75.1209,237.612 63.2876,237.112 51.5,236C 40.8743,232.544 33.2076,225.71 28.5,215.5C 53.8268,214.667 79.1601,214.167 104.5,214C 114.788,209.927 118.621,202.427 116,191.5C 113.744,186.243 109.91,182.743 104.5,181C 78.5021,180.5 52.5021,180.333 26.5,180.5C 26.3333,145.832 26.5,111.165 27,76.5C 31.0255,63.3089 39.5255,54.6422 52.5,50.5 Z M 26.5,191.5 C 51.1689,191.333 75.8356,191.5 100.5,192C 107.167,195.667 107.167,199.333 100.5,203C 75.8356,203.5 51.1689,203.667 26.5,203.5C 26.5,199.5 26.5,195.5 26.5,191.5 Z"/></g>
<g><path style="opacity:1" fill="#565756" d="M 187.5,79.5 C 207.836,79.3334 228.169,79.5 248.5,80C 251.343,83.6187 251.01,86.952 247.5,90C 227.833,90.6667 208.167,90.6667 188.5,90C 186.09,89.2421 185.09,87.5754 185.5,85C 185.395,82.8218 186.061,80.9885 187.5,79.5 Z"/></g>
<g><path style="opacity:1" fill="#565756" d="M 194.5,94.5 C 201.442,92.9434 204.275,95.61 203,102.5C 199.135,111.068 194.635,119.235 189.5,127C 182.495,128.324 179.995,125.49 182,118.5C 185.924,110.316 190.091,102.316 194.5,94.5 Z"/></g>
<g><path style="opacity:1" fill="#565756" d="M 215.5,94.5 C 218.685,94.0196 221.519,94.6863 224,96.5C 224.667,105.833 224.667,115.167 224,124.5C 220.667,128.5 217.333,128.5 214,124.5C 213.333,115.167 213.333,105.833 214,96.5C 214.717,95.9558 215.217,95.2891 215.5,94.5 Z"/></g>
<g><path style="opacity:1" fill="#565756" d="M 238.5,94.5 C 241.119,94.2317 243.619,94.565 246,95.5C 250,103.5 254,111.5 258,119.5C 258.242,127.244 254.908,129.244 248,125.5C 244.333,118.167 240.667,110.833 237,103.5C 236.068,100.177 236.568,97.1769 238.5,94.5 Z"/></g>
</svg>
