<?xml version="1.0" encoding="UTF-8"?>
<!DOCTYPE svg PUBLIC "-//W3C//DTD SVG 1.1//EN" "http://www.w3.org/Graphics/SVG/1.1/DTD/svg11.dtd">
<svg xmlns="http://www.w3.org/2000/svg" version="1.1" width="268px" height="268px" style="shape-rendering:geometricPrecision; text-rendering:geometricPrecision; image-rendering:optimizeQuality; fill-rule:evenodd; clip-rule:evenodd" xmlns:xlink="http://www.w3.org/1999/xlink">
<g><path style="opacity:1" fill="#505150" d="M 53.5,31.5 C 57.1309,31.1604 60.4642,31.9937 63.5,34C 67.3333,37.1667 71.1667,40.3333 75,43.5C 77.2078,47.8844 78.0411,52.551 77.5,57.5C 79.5,57.5 81.5,57.5 83.5,57.5C 83.1326,53.0329 83.6326,48.6996 85,44.5C 90.4724,38.5215 96.9724,34.1882 104.5,31.5C 112.028,34.1882 118.528,38.5215 124,44.5C 125.367,48.6996 125.867,53.0329 125.5,57.5C 127.5,57.5 129.5,57.5 131.5,57.5C 131.133,53.0329 131.633,48.6996 133,44.5C 137.167,41 141.333,37.5 145.5,34C 149.68,31.2943 154.013,30.9609 158.5,33C 163,36.8333 167.5,40.6667 172,44.5C 173.367,48.6996 173.867,53.0329 173.5,57.5C 175.5,57.5 177.5,57.5 179.5,57.5C 178.959,52.551 179.792,47.8844 182,43.5C 186.59,40.1208 191.09,36.6208 195.5,33C 200.563,30.812 205.229,31.4786 209.5,35C 213.659,38.1595 217.492,41.6595 221,45.5C 222.317,51.7575 222.817,58.0908 222.5,64.5C 227.511,64.3341 232.511,64.5007 237.5,65C 240.167,67.3333 240.167,69.6667 237.5,72C 232.511,72.4993 227.511,72.6659 222.5,72.5C 222.5,74.5 222.5,76.5 222.5,78.5C 228.842,78.3338 235.175,78.5005 241.5,79C 243.22,82.0859 242.553,84.4192 239.5,86C 233.843,86.4994 228.176,86.6661 222.5,86.5C 222.5,118.167 222.5,149.833 222.5,181.5C 228.842,181.334 235.175,181.5 241.5,182C 242.982,184.592 242.648,186.925 240.5,189C 234.509,189.499 228.509,189.666 222.5,189.5C 222.5,191.167 222.5,192.833 222.5,194.5C 227.179,194.334 231.845,194.501 236.5,195C 239.551,196.36 240.218,198.527 238.5,201.5C 233.208,202.495 227.875,202.828 222.5,202.5C 222.817,208.909 222.317,215.243 221,221.5C 215.377,227.81 208.711,232.477 201,235.5C 192.149,232.577 185.149,227.244 180,219.5C 179.502,216.183 179.335,212.85 179.5,209.5C 177.5,209.5 175.5,209.5 173.5,209.5C 173.867,213.967 173.367,218.3 172,222.5C 167.833,226 163.667,229.5 159.5,233C 154.833,236.333 150.167,236.333 145.5,233C 141.333,229.5 137.167,226 133,222.5C 131.633,218.3 131.133,213.967 131.5,209.5C 129.5,209.5 127.5,209.5 125.5,209.5C 125.867,213.967 125.367,218.3 124,222.5C 119.258,226.454 114.424,230.287 109.5,234C 105.302,236.161 101.302,235.828 97.5,233C 93.3333,229.5 89.1667,226 85,222.5C 83.6326,218.3 83.1326,213.967 83.5,209.5C 81.5,209.5 79.5,209.5 77.5,209.5C 78.0411,214.449 77.2078,219.116 75,223.5C 70.2139,226.618 65.7139,230.118 61.5,234C 57.8333,236 54.1667,236 50.5,234C 45.5734,229.952 40.7401,225.785 36,221.5C 34.8436,217.582 34.3436,213.582 34.5,209.5C 29.8291,209.245 26.6625,206.911 25,202.5C 24.3333,195.5 24.3333,188.5 25,181.5C 26.6058,177.108 29.7724,174.775 34.5,174.5C 34.5,147.167 34.5,119.833 34.5,92.5C 25.7026,90.0972 22.3692,84.2639 24.5,75C 24.133,69.9059 24.9664,65.0726 27,60.5C 28.995,58.253 31.495,57.253 34.5,57.5C 34.3436,53.4183 34.8436,49.4183 36,45.5C 41.4662,40.1817 47.2995,35.515 53.5,31.5 Z M 55.5,39.5 C 60.3856,42.2058 64.8856,45.5391 69,49.5C 69.1298,53.9508 69.7964,58.2841 71,62.5C 77.1333,66.4698 83.2999,66.4698 89.5,62.5C 90.9767,57.9764 91.9767,53.3098 92.5,48.5C 96.5,45.5 100.5,42.5 104.5,39.5C 108.811,42.6434 112.978,45.9767 117,49.5C 115.113,62.6145 120.613,67.7812 133.5,65C 135.329,64.7265 136.829,63.8932 138,62.5C 139.204,58.2841 139.87,53.9508 140,49.5C 144.022,45.9767 148.189,42.6434 152.5,39.5C 156.5,42.5 160.5,45.5 164.5,48.5C 163.534,63.5169 170.201,68.6836 184.5,64C 185.701,63.0975 186.535,61.9308 187,60.5C 187.333,56.8333 187.667,53.1667 188,49.5C 191.833,46.3333 195.667,43.1667 199.5,40C 200.5,39.3333 201.5,39.3333 202.5,40C 206,42.8333 209.5,45.6667 213,48.5C 214.159,76.7488 214.659,105.082 214.5,133.5C 214.333,161.167 214.167,188.833 214,216.5C 210.275,221.053 205.775,224.719 200.5,227.5C 196.189,224.357 192.022,221.023 188,217.5C 189.865,204.363 184.365,199.197 171.5,202C 169.998,202.583 168.665,203.416 167.5,204.5C 166.023,209.024 165.023,213.69 164.5,218.5C 160.5,221.5 156.5,224.5 152.5,227.5C 148.189,224.357 144.022,221.023 140,217.5C 141.887,204.385 136.387,199.219 123.5,202C 121.671,202.273 120.171,203.107 119,204.5C 117.796,208.716 117.13,213.049 117,217.5C 112.978,221.023 108.811,224.357 104.5,227.5C 100.5,224.5 96.5,221.5 92.5,218.5C 93.407,203.46 86.7403,198.293 72.5,203C 71.6667,203.833 70.8333,204.667 70,205.5C 69.6667,209.5 69.3333,213.5 69,217.5C 65.1667,220.667 61.3333,223.833 57.5,227C 56.5,227.667 55.5,227.667 54.5,227C 51,224.167 47.5,221.333 44,218.5C 42.3419,162.583 42.0085,106.583 43,50.5C 46.7161,46.2815 50.8828,42.6149 55.5,39.5 Z M 33.5,65.5 C 34.6533,71.6529 34.82,77.9863 34,84.5C 32.1735,78.2582 32.0069,71.9249 33.5,65.5 Z M 33.5,182.5 C 34.6533,188.653 34.82,194.986 34,201.5C 32.1735,195.258 32.0069,188.925 33.5,182.5 Z"/></g>
<g><path style="opacity:1" fill="#505150" d="M 58.5,70.5 C 60.1703,70.7512 61.6703,71.4178 63,72.5C 63.7961,76.7548 63.6295,80.9215 62.5,85C 59.9369,85.9181 57.7702,85.4181 56,83.5C 55.3333,79.8333 55.3333,76.1667 56,72.5C 56.9947,71.9341 57.828,71.2674 58.5,70.5 Z"/></g>
<g><path style="opacity:1" fill="#505150" d="M 75.5,70.5 C 77.3904,70.2965 78.8904,70.9632 80,72.5C 80.6667,76.5 80.6667,80.5 80,84.5C 77.4082,85.9817 75.0749,85.6483 73,83.5C 72.3333,80.1667 72.3333,76.8333 73,73.5C 73.6979,72.3094 74.5313,71.3094 75.5,70.5 Z"/></g>
<g><path style="opacity:1" fill="#505150" d="M 92.5,70.5 C 93.9305,70.4208 95.2638,70.7542 96.5,71.5C 97.6609,75.7953 97.8275,80.1287 97,84.5C 91.0754,86.5751 88.9087,84.4085 90.5,78C 90.6311,75.2228 91.2977,72.7228 92.5,70.5 Z"/></g>
<g><path style="opacity:1" fill="#505150" d="M 109.5,70.5 C 111.993,70.3291 113.826,71.3291 115,73.5C 115.667,76.8333 115.667,80.1667 115,83.5C 112.925,85.6483 110.592,85.9817 108,84.5C 106.966,79.5431 107.466,74.8764 109.5,70.5 Z"/></g>
<g><path style="opacity:1" fill="#505150" d="M 127.5,70.5 C 129.17,70.7512 130.67,71.4178 132,72.5C 132.796,76.7548 132.629,80.9215 131.5,85C 129.231,85.7581 127.064,85.5914 125,84.5C 124.333,80.5 124.333,76.5 125,72.5C 125.995,71.9341 126.828,71.2674 127.5,70.5 Z"/></g>
<g><path style="opacity:1" fill="#505150" d="M 144.5,70.5 C 146.39,70.2965 147.89,70.9632 149,72.5C 149.796,76.7548 149.629,80.9215 148.5,85C 145.937,85.9181 143.77,85.4181 142,83.5C 141.333,80.1667 141.333,76.8333 142,73.5C 142.698,72.3094 143.531,71.3094 144.5,70.5 Z"/></g>
<g><path style="opacity:1" fill="#505150" d="M 161.5,70.5 C 162.93,70.4208 164.264,70.7542 165.5,71.5C 166.661,75.7953 166.828,80.1287 166,84.5C 160.075,86.5751 157.909,84.4085 159.5,78C 159.631,75.2228 160.298,72.7228 161.5,70.5 Z"/></g>
<g><path style="opacity:1" fill="#505150" d="M 178.5,70.5 C 180.993,70.3291 182.826,71.3291 184,73.5C 184.667,76.8333 184.667,80.1667 184,83.5C 181.925,85.6483 179.592,85.9817 177,84.5C 175.966,79.5431 176.466,74.8764 178.5,70.5 Z"/></g>
<g><path style="opacity:1" fill="#505150" d="M 196.5,70.5 C 200.902,71.0335 202.569,73.5335 201.5,78C 202.548,84.5129 200.048,86.6796 194,84.5C 193.333,80.5 193.333,76.5 194,72.5C 194.995,71.9341 195.828,71.2674 196.5,70.5 Z"/></g>
<g><path style="opacity:1" fill="#505150" d="M 78.5,91.5 C 80.7224,91.178 82.5557,91.8446 84,93.5C 84.6667,124.5 84.6667,155.5 84,186.5C 82.0121,189.838 79.6788,190.172 77,187.5C 76.8333,171.667 76.6667,155.833 76.5,140C 76.5148,123.614 77.1814,107.447 78.5,91.5 Z"/></g>
<g><path style="opacity:1" fill="#505150" d="M 126.5,91.5 C 128.722,91.178 130.556,91.8446 132,93.5C 132.667,124.833 132.667,156.167 132,187.5C 129.667,190.167 127.333,190.167 125,187.5C 124.333,156.167 124.333,124.833 125,93.5C 125.717,92.9558 126.217,92.2891 126.5,91.5 Z"/></g>
<g><path style="opacity:1" fill="#505150" d="M 174.5,91.5 C 176.262,91.3573 177.929,91.6906 179.5,92.5C 180.667,124.161 180.833,155.828 180,187.5C 177.321,190.172 174.988,189.838 173,186.5C 172.333,155.5 172.333,124.5 173,93.5C 173.717,92.9558 174.217,92.2891 174.5,91.5 Z"/></g>
</svg>
