<?xml version="1.0" encoding="UTF-8"?>
<!DOCTYPE svg PUBLIC "-//W3C//DTD SVG 1.1//EN" "http://www.w3.org/Graphics/SVG/1.1/DTD/svg11.dtd">
<svg xmlns="http://www.w3.org/2000/svg" version="1.1" width="267px" height="268px" style="shape-rendering:geometricPrecision; text-rendering:geometricPrecision; image-rendering:optimizeQuality; fill-rule:evenodd; clip-rule:evenodd" xmlns:xlink="http://www.w3.org/1999/xlink">
<g><path style="opacity:1" fill="#565756" d="M 52.5,46.5 C 74.0962,45.4341 83.7629,55.7674 81.5,77.5C 77.8333,77.5 74.1667,77.5 70.5,77.5C 70.6653,73.8183 70.4986,70.1516 70,66.5C 66.8752,57.2813 61.0419,55.1146 52.5,60C 50.396,62.0424 49.2293,64.5424 49,67.5C 48.5002,76.4938 48.3336,85.4938 48.5,94.5C 66.5,94.5 84.5,94.5 102.5,94.5C 102.091,83.1035 102.591,71.7702 104,60.5C 109.471,48.6817 118.637,44.1817 131.5,47C 139.389,49.2579 144.222,54.4245 146,62.5C 146.499,67.4889 146.666,72.4889 146.5,77.5C 142.833,77.5 139.167,77.5 135.5,77.5C 135.666,73.4862 135.499,69.4862 135,65.5C 131.27,57.1984 125.436,55.365 117.5,60C 116.54,61.4194 115.707,62.9194 115,64.5C 114.5,106.165 114.333,147.832 114.5,189.5C 110.5,189.5 106.5,189.5 102.5,189.5C 102.5,183.5 102.5,177.5 102.5,171.5C 84.5,171.5 66.5,171.5 48.5,171.5C 48.5,177.5 48.5,183.5 48.5,189.5C 44.8333,189.5 41.1667,189.5 37.5,189.5C 37.3333,147.499 37.5,105.499 38,63.5C 40.1694,55.5018 45.0028,49.8351 52.5,46.5 Z M 48.5,106.5 C 66.5,106.5 84.5,106.5 102.5,106.5C 102.5,113.5 102.5,120.5 102.5,127.5C 84.5,127.5 66.5,127.5 48.5,127.5C 48.5,120.5 48.5,113.5 48.5,106.5 Z M 48.5,138.5 C 66.5,138.5 84.5,138.5 102.5,138.5C 102.5,145.833 102.5,153.167 102.5,160.5C 84.5,160.5 66.5,160.5 48.5,160.5C 48.5,153.167 48.5,145.833 48.5,138.5 Z"/></g>
<g><path style="opacity:1" fill="#565756" d="M 5.5,92.5 C 9.16667,92.5 12.8333,92.5 16.5,92.5C 16.5,131.5 16.5,170.5 16.5,209.5C 94.1667,209.5 171.833,209.5 249.5,209.5C 249.5,170.5 249.5,131.5 249.5,92.5C 253.167,92.5 256.833,92.5 260.5,92.5C 260.5,135.167 260.5,177.833 260.5,220.5C 175.5,220.5 90.5,220.5 5.5,220.5C 5.5,177.833 5.5,135.167 5.5,92.5 Z M 48.5,106.5 C 48.5,113.5 48.5,120.5 48.5,127.5C 66.5,127.5 84.5,127.5 102.5,127.5C 102.5,120.5 102.5,113.5 102.5,106.5C 84.5,106.5 66.5,106.5 48.5,106.5 Z M 48.5,138.5 C 48.5,145.833 48.5,153.167 48.5,160.5C 66.5,160.5 84.5,160.5 102.5,160.5C 102.5,153.167 102.5,145.833 102.5,138.5C 84.5,138.5 66.5,138.5 48.5,138.5 Z"/></g>
<g><path style="opacity:1" fill="#565756" d="M 218.5,111.5 C 222.287,113.124 224.953,115.957 226.5,120C 216.562,129.979 204.562,133.979 190.5,132C 183.1,129.377 175.6,127.211 168,125.5C 159.367,126.651 151.7,129.984 145,135.5C 142.129,133.285 139.963,130.451 138.5,127C 148.745,116.808 161.078,112.808 175.5,115C 182.569,118.033 189.903,120.2 197.5,121.5C 205.732,120.549 212.732,117.216 218.5,111.5 Z"/></g>
<g><path style="opacity:1" fill="#565756" d="M 218.5,160.5 C 219.822,160.33 220.989,160.663 222,161.5C 223.934,164.034 225.268,166.701 226,169.5C 216.359,178.788 204.859,182.621 191.5,181C 183.745,177.958 175.745,175.791 167.5,174.5C 163.673,174.608 160.007,175.442 156.5,177C 152.656,179.515 148.823,182.015 145,184.5C 142.078,182.244 139.911,179.411 138.5,176C 148.902,165.226 161.569,161.226 176.5,164C 183.333,166.752 190.333,168.919 197.5,170.5C 205.748,169.54 212.748,166.207 218.5,160.5 Z"/></g>
</svg>
